<?xml version="1.0" standalone="no"?>
<!DOCTYPE svg PUBLIC "-//W3C//DTD SVG 20010904//EN"
 "http://www.w3.org/TR/2001/REC-SVG-20010904/DTD/svg10.dtd">
<svg version="1.0" xmlns="http://www.w3.org/2000/svg"
 width="700.000000pt" height="700.000000pt" viewBox="0 0 700.000000 700.000000"
 preserveAspectRatio="xMidYMid meet">
<metadata>
Created by potrace 1.14, written by Peter Selinger 2001-2017
</metadata>
<g transform="translate(0.000000,700.000000) scale(0.100000,-0.100000)"
fill="#000000" stroke="none">
<path d="M1357 5163 c-7 -6 -285 -14 -681 -19 -488 -6 -506 -8 -506 -59 0 -43
69 -78 195 -100 54 -9 133 -50 168 -86 29 -31 60 -93 71 -144 3 -17 9 -41 13
-55 4 -14 9 -547 10 -1185 2 -1045 1 -1165 -14 -1215 -37 -127 -112 -184 -303
-231 -162 -39 -199 -59 -200 -102 0 -42 103 -58 290 -43 268 21 581 26 695 12
215 -26 320 -27 378 -2 28 11 37 21 37 39 0 35 -36 55 -147 82 -53 13 -120 36
-149 50 -72 35 -134 108 -165 193 l-24 67 -2 495 c-3 512 -1 543 38 555 27 9
122 -3 214 -26 220 -56 357 -155 465 -335 59 -98 275 -425 360 -544 133 -186
305 -371 433 -465 287 -209 532 -253 886 -159 60 16 132 27 191 30 52 2 127 5
165 8 380 27 706 26 797 0 37 -11 234 -7 271 5 48 16 60 52 26 80 -24 19 -101
45 -169 56 -92 15 -203 94 -249 178 -48 86 -51 128 -48 655 2 481 3 494 22
508 48 36 292 -18 440 -98 102 -55 175 -128 252 -252 49 -80 185 -291 217
-338 212 -311 273 -388 432 -544 191 -189 402 -303 609 -329 56 -7 199 -8 231
-1 12 2 37 7 55 10 77 12 166 46 192 74 52 55 43 130 -16 133 -12 1 -60 2
-107 4 -293 12 -374 52 -617 299 -129 131 -254 274 -388 441 -22 28 -42 52
-45 55 -32 29 -310 432 -310 449 0 5 -3 11 -7 13 -13 5 -113 159 -119 182 -4
18 3 26 39 44 72 36 200 123 267 182 146 127 254 322 276 497 49 378 -93 669
-397 810 -84 40 -240 86 -324 98 -32 4 -146 17 -180 20 -90 9 -350 4 -580 -10
-33 -3 -166 -4 -295 -4 -428 1 -460 -1 -487 -23 -21 -17 -15 -55 13 -77 25
-20 94 -43 164 -55 53 -9 132 -49 168 -85 47 -47 75 -119 91 -231 3 -25 6
-558 6 -1185 0 -1234 1 -1200 -54 -1275 -45 -62 -102 -98 -192 -124 -113 -32
-126 -33 -361 -22 -280 12 -367 37 -503 146 -65 52 -232 221 -335 340 -36 41
-67 77 -70 80 -11 11 -102 122 -182 221 -82 102 -448 640 -448 658 0 10 35 35
90 64 85 46 181 117 251 187 176 174 253 355 253 600 0 128 -7 181 -41 284
-89 267 -328 435 -703 492 -100 15 -346 34 -353 27z m188 -164 c187 -30 304
-112 379 -263 30 -60 75 -189 74 -211 0 -3 4 -24 7 -48 29 -168 -2 -409 -68
-527 -90 -163 -176 -251 -312 -318 -135 -67 -341 -96 -474 -67 -80 18 -90 23
-111 65 -18 35 -19 59 -15 432 6 613 14 750 44 821 34 80 88 111 221 130 42 5
181 -2 255 -14z m3424 -9 c196 -47 306 -150 375 -350 35 -104 48 -195 48 -335
-1 -206 -60 -371 -189 -525 -33 -40 -138 -117 -202 -149 -94 -48 -199 -72
-321 -74 -118 -1 -177 6 -218 27 -56 29 -57 38 -56 410 1 448 11 788 25 839
30 112 89 162 204 174 27 3 51 6 53 8 10 9 213 -10 281 -25z"/>
<path d="M2947 3966 c-60 -22 -113 -61 -138 -103 -19 -30 -23 -51 -23 -103 1
-74 20 -119 81 -190 70 -82 72 -72 -23 -120 -184 -93 -288 -251 -277 -419 7
-114 103 -210 240 -241 158 -36 266 4 412 155 51 53 97 93 100 88 4 -4 29 -39
56 -78 68 -99 93 -124 150 -151 67 -32 150 -32 228 0 84 35 127 67 127 94 0
34 -24 37 -75 7 -84 -50 -190 -36 -260 33 -42 41 -145 176 -145 190 0 4 26 36
58 69 320 340 322 341 402 358 19 4 46 14 59 22 22 14 23 17 8 28 -13 9 -32 9
-89 -2 -65 -13 -135 -16 -248 -10 -44 2 -55 -28 -16 -42 30 -12 49 -45 41 -71
-6 -17 -89 -138 -104 -150 -4 -3 -22 -25 -41 -50 -19 -24 -50 -60 -68 -80 -28
-30 -34 -33 -42 -18 -21 35 -91 118 -183 214 -54 56 -97 104 -97 107 0 3 18
12 40 21 52 20 116 79 143 130 16 31 21 59 22 118 0 70 -2 79 -31 115 -48 60
-104 86 -193 90 -49 2 -90 -2 -114 -11z m156 -61 c43 -28 69 -83 68 -144 -1
-98 -41 -176 -102 -201 -31 -13 -33 -13 -61 21 -87 103 -128 229 -92 284 37
57 131 77 187 40z m-25 -563 c62 -65 135 -149 162 -186 58 -80 57 -84 -50
-167 -59 -46 -103 -66 -173 -77 -116 -18 -210 17 -264 99 -25 38 -27 50 -27
133 1 157 61 249 199 303 17 6 32 12 35 12 3 1 56 -52 118 -117z"/>
</g>
</svg>
